<svg width="766" height="233" viewBox="0 0 766 233" fill="none" xmlns="http://www.w3.org/2000/svg">
<path d="M569.522 37.6827C551.426 34.1125 533.359 30.1083 515.187 26.9628C475.844 20.1525 439.952 28.8528 401.437 35.5725C325.717 48.7833 250.551 64.7213 174.594 76.6343C132.034 83.3094 86.1145 93.3645 55.2477 126.484C46.6479 135.711 37.2616 160.186 47.0012 171.858C56.0376 182.687 78.0221 189.284 90.7767 194.609C115.224 204.815 143.044 208.005 169.259 208.823C211.111 210.129 250.801 213.708 292.34 206.571C374.981 192.37 457.032 176.723 539.482 161.327C574.378 154.812 630.598 150.801 641.662 109.079C647.094 88.5959 649.312 70.0763 628.205 60.6933C615.793 55.1759 602.927 53.9893 590.807 47.1045C576.209 38.8125 560.026 33.0558 544.027 28.1361C500.192 14.6562 451.976 31.1237 408.064 36.3155C298.526 49.2662 189.311 65.4693 80.1124 81.2826C62.5032 83.8326 48.0435 94.5308 33.1128 103.485C18.4561 112.275 -2.37678 123.552 1.80097 144.168C6.76715 168.674 41.9134 184.429 62.6069 190.039C104.142 201.3 146.968 208.377 189.156 216.7C235.961 225.935 281.822 233.061 329.714 231.728C407.38 229.568 483.948 214.327 558.079 191.532C602.758 177.793 645.399 158.744 690.416 145.939C709.846 140.412 755.067 133.143 763.039 109.737C774.088 77.3007 708.291 41.3691 688.706 30.1449C667.697 18.1047 644.671 7.34258 620.751 2.62345C601.072 -1.25925 580.591 3.50618 561.215 6.82667C517.815 14.264 474.22 21.3597 431.184 30.7145C381.827 41.4435 333.556 56.4897 284.079 66.7594C240.218 75.8632 198.292 81.1712 153.688 77.4497C138.797 76.2073 124.915 75.6055 110.384 79.492C91.5207 84.5371 71.39 92.0896 54.0419 101.122"/>
</svg>
