<svg width="100" height="100" viewBox="0 0 100 100" fill="none" xmlns="http://www.w3.org/2000/svg">
<g clip-path="url(#clip0_2348_852)">
<path d="M32.8254 25.1043C39.3782 26.7006 46.1069 27.5109 52.8225 27.5109C59.5381 27.5109 66.2656 26.702 72.8564 25.0943C73.4895 24.921 73.9098 24.2653 73.8415 23.5581C72.9024 13.744 66.4915 5.69231 58.3219 3.13535V1.43167C58.3219 0.641387 57.7348 0 57.0085 0C56.2821 0 55.695 0.641387 55.695 1.43167V2.52976C54.7493 2.378 53.7932 2.27492 52.8186 2.27492C51.8466 2.27492 50.8931 2.378 49.9487 2.52832V1.43167C49.9487 0.641387 49.3616 0 48.6353 0C47.909 0 47.3218 0.641387 47.3218 1.43167V3.13392C39.1549 5.68945 32.7414 13.7426 31.8036 23.5581C31.734 24.2796 32.174 24.9454 32.8254 25.1043ZM47.3218 6.13469V10.5686C47.3218 11.3588 47.909 12.0002 48.6353 12.0002C49.3616 12.0002 49.9487 11.3588 49.9487 10.5686V5.41743C50.8905 5.2442 51.8493 5.13825 52.8252 5.13825C53.7984 5.13825 54.7546 5.2442 55.695 5.416V10.5686C55.695 11.3588 56.2821 12.0002 57.0085 12.0002C57.7348 12.0002 58.3219 11.3588 58.3219 10.5686V6.13469C64.7919 8.48263 69.8867 14.8092 71.0715 22.5874C59.0745 25.3233 46.5154 25.3147 34.5723 22.5874C35.7557 14.8092 40.8479 8.48406 47.3218 6.13469ZM52.8212 22.0062C50.0906 22.0062 47.3534 21.6769 44.6897 21.0283C43.9818 20.8551 43.5352 20.0906 43.6928 19.3189C43.8517 18.5473 44.5557 18.0676 45.2597 18.2337C50.218 19.4406 55.4231 19.4406 60.3801 18.2337C61.0867 18.0676 61.7894 18.5473 61.947 19.3189C62.1059 20.0906 61.6593 20.8565 60.9514 21.0283C58.2877 21.6769 55.5519 22.0062 52.8212 22.0062ZM36.2627 31.8703C36.7605 32.4487 37.5919 32.4774 38.1186 31.9376C38.6479 31.3979 38.6768 30.4917 38.1816 29.9133C37.852 29.5281 36.1169 27.6412 34.3845 28.3556C32.631 29.0772 32.5601 31.6842 32.5378 32.5404C32.4183 36.9828 34.7798 39.4811 36.5306 40.4847C37.7442 52.3976 46.3985 57.7649 52.2814 57.7649C58.1643 57.7649 66.8199 52.399 68.0335 40.4847C69.7843 39.4811 72.1445 36.9814 72.0263 32.5418C72.0014 31.6842 71.9318 29.0786 70.1783 28.3556C68.4498 27.6469 66.7108 29.5296 66.3812 29.9133C65.8873 30.4888 65.9162 31.3907 66.4416 31.9319C66.9696 32.4731 67.7984 32.443 68.2975 31.8732C68.5615 31.5683 68.9476 31.2547 69.2011 31.123C69.276 31.3378 69.3784 31.783 69.3994 32.6248C69.5111 36.7667 66.7332 38.0079 66.4587 38.121L61.3454 39.3422C55.3286 38.6364 49.2329 38.6364 43.2187 39.3422L38.1054 38.121C37.7928 37.9922 35.0517 36.7423 35.1647 32.6248C35.187 31.7844 35.2894 31.3392 35.3617 31.123C35.6152 31.2562 36.0013 31.5683 36.2627 31.8703ZM39.302 41.3394L41.9276 41.9665L42.7077 49.6187C41.1132 47.5829 39.8431 44.867 39.302 41.3394ZM61.859 49.6144L62.6379 41.9665L65.2634 41.3394C64.7223 44.8656 63.4522 47.58 61.859 49.6144ZM59.9834 42.0638L58.9261 52.4506C56.5212 54.1943 53.981 54.903 52.2814 54.903C50.5818 54.903 48.0429 54.1943 45.6406 52.4534L44.5807 42.0638C49.6952 41.5384 54.8662 41.5384 59.9834 42.0638ZM79.9083 76.4181C80.0948 77.0137 80.6044 77.3874 81.1508 77.3874C81.2913 77.3874 81.4345 77.3616 81.575 77.31C82.2606 77.0538 82.6284 76.2406 82.3933 75.4918C79.8124 67.2597 73.4737 60.4106 65.844 57.6017L65.8558 57.3683C65.8952 56.5795 65.3409 55.9038 64.6172 55.8608C63.9001 55.8179 63.2736 56.422 63.2342 57.2123L62.8992 63.8781L59.0863 61.9282C58.4257 61.5918 57.6455 61.901 57.3394 62.6154C57.0321 63.3312 57.3132 64.1831 57.9699 64.5195L63.5454 67.3714C63.7228 67.4616 63.9132 67.5074 64.1037 67.5074C64.3374 67.5074 64.5699 67.4401 64.7775 67.3041C65.1531 67.0607 65.3921 66.6284 65.4145 66.1531L65.6942 60.5925C67.6145 61.3756 69.4375 62.4365 71.1082 63.735L68.1858 76.4668H41.0515L41.0502 71.2054C41.0567 71.0852 41.1342 69.4445 40.6929 67.4144C40.752 67.3943 40.8151 67.4 40.8715 67.3714L46.4458 64.5195C47.1025 64.1831 47.3849 63.3312 47.0762 62.6154C46.7689 61.8996 45.99 61.5903 45.3294 61.9282L41.5178 63.8781L41.1828 57.2123C41.1447 56.422 40.5195 55.8164 39.7998 55.8608C39.0748 55.9038 38.5205 56.5795 38.5612 57.3683L38.5809 57.7535C37.165 58.3004 35.7728 58.9761 34.4449 59.8008C33.7619 59.5817 33.0356 59.4314 32.2606 59.3612C31.4319 53.8894 27.6058 53.8765 25.4334 53.8765L15.819 53.8808C12.6103 53.8808 9.88883 56.1944 8.98125 59.3698C1.98981 59.9854 0.0905762 67.2111 0.0905762 71.1209V89.8514C0.0905762 90.6417 0.677683 91.2831 1.40402 91.2831C2.13035 91.2831 2.71745 90.6417 2.71745 89.8514V71.1252C2.71877 70.7831 2.82516 63.2181 8.68704 62.2704C8.96417 66.2991 12.0534 69.486 15.8177 69.486L25.4321 69.4903C27.8107 69.4903 32.17 69.4688 32.4051 62.2804C34.0601 62.508 35.4024 63.1666 36.3783 64.2905C38.6098 66.8603 38.4299 70.9993 38.4259 71.1224V89.8529C38.4259 90.6432 39.013 91.2846 39.7394 91.2846C40.4657 91.2846 41.0528 90.6432 41.0528 89.8529L41.0515 79.3316H69.2129C69.8158 79.3316 70.3399 78.8849 70.487 78.2478L73.3621 65.7178C74.0201 66.3678 74.6466 67.0564 75.2351 67.7794L71.8201 83.5135C71.7952 83.6223 71.7847 83.7325 71.7847 83.8427V107.452C71.7847 108.243 72.3718 108.884 73.0981 108.884C73.8244 108.884 74.4115 108.243 74.4115 107.452V84.0102L77.2998 70.7015C78.3873 72.4853 79.2765 74.4023 79.9083 76.4181ZM26.4671 66.6112V63.2711C26.4671 62.4808 25.88 61.8394 25.1536 61.8394C24.4273 61.8394 23.8402 62.4808 23.8402 63.2711V66.6269L21.4484 66.6255V63.2711C21.4484 62.4808 20.8613 61.8394 20.135 61.8394C19.4086 61.8394 18.8215 62.4808 18.8215 63.2711V66.6241L16.6044 66.6226V63.2697C16.6044 62.4794 16.0173 61.838 15.291 61.838C14.5647 61.838 13.9776 62.4794 13.9776 63.2697V66.186C12.3962 65.4143 11.2876 63.6906 11.2876 61.682C11.2876 58.9589 13.3208 56.7427 15.819 56.7427L25.4334 56.7384C27.9696 56.7384 29.8019 56.7384 29.8019 61.682C29.8019 65.924 28.4504 66.5253 26.4671 66.6112ZM38.3038 62.3391C38.0069 61.9955 37.6812 61.6905 37.345 61.4042C37.802 61.168 38.2657 60.9618 38.7333 60.76L38.8475 63.0349C38.6781 62.7987 38.4982 62.5653 38.3038 62.3391ZM98.5959 54.1457H94.9892C94.4415 51.6846 92.4201 49.8507 89.9942 49.8507H76.3883C73.542 49.8507 71.233 52.3661 71.233 55.47C71.233 58.5738 73.5407 61.0892 76.3883 61.0892H89.9942C92.3479 61.0892 94.3114 59.3598 94.9288 57.0104H97.2838V65.2468L86.6712 67.3829C86.0473 67.5074 85.5968 68.1001 85.5968 68.7902V83.0238C83.3954 83.1384 81.7707 83.7311 80.7174 84.8864C79.1491 86.6059 79.1596 89.0182 79.1714 91.1457L79.1727 101.081C79.1727 105.384 82.3841 108.884 86.331 108.884C90.2779 108.884 93.4892 105.384 93.4892 101.081L93.4905 91.1457C93.5024 89.0182 93.5142 86.6059 91.9446 84.8864C91.0804 83.9387 89.8497 83.356 88.2223 83.1126V69.9813L98.8349 67.8453C99.4588 67.7207 99.9093 67.128 99.9093 66.438V55.5773C99.9093 54.787 99.3222 54.1457 98.5959 54.1457ZM90.8624 91.1299L90.861 101.081C90.861 103.804 88.8278 106.021 86.3297 106.021C84.4882 106.021 82.9069 104.812 82.1989 103.09H84.8744C85.6007 103.09 86.1878 102.449 86.1878 101.658C86.1878 100.868 85.6007 100.227 84.8744 100.227H81.7983V97.8101H84.8744C85.6007 97.8101 86.1878 97.1687 86.1878 96.3784C86.1878 95.5881 85.6007 94.9468 84.8744 94.9468H81.7983V92.3397H84.8757C85.602 92.3397 86.1891 91.6983 86.1891 90.908C86.1891 90.1177 85.602 89.4764 84.8757 89.4764H81.822C81.8758 88.4155 82.0466 87.4921 82.5798 86.9065C83.2247 86.1993 84.4869 85.8399 86.331 85.8399C88.1751 85.8399 89.4373 86.1978 90.0822 86.9065C90.8794 87.7798 90.8716 89.4076 90.8624 91.1299ZM20.6472 78.484C14.3151 78.484 3.59746 79.6995 3.59746 84.2551V107.568C3.59746 108.359 4.18457 109 4.9109 109C5.63723 109 6.22434 108.359 6.22434 107.568V87.5823C7.81228 88.4083 9.96764 88.981 12.2583 89.3633V101.409C12.2583 102.2 12.8454 102.841 13.5717 102.841C14.298 102.841 14.8852 102.2 14.8852 101.409V89.7183C16.9276 89.9345 18.9463 90.0275 20.6485 90.0275C20.768 90.0275 20.8994 90.0233 21.0215 90.0233V96.294C21.0215 97.0842 21.6086 97.7256 22.335 97.7256C23.0613 97.7256 23.6484 97.0842 23.6484 96.294V89.9402C24.774 89.8786 25.9456 89.7813 27.1198 89.6396V102.44C27.1198 103.23 27.7069 103.872 28.4333 103.872C29.1596 103.872 29.7467 103.23 29.7467 102.44V89.2358C30.5151 89.0912 31.2598 88.9237 31.9691 88.7319V96.294C31.9691 97.0842 32.5562 97.7256 33.2825 97.7256C34.0088 97.7256 34.5959 97.0842 34.5959 96.294V87.8042C34.7549 87.7312 34.9217 87.661 35.0701 87.5837V107.392C35.0701 108.183 35.6572 108.824 36.3835 108.824C37.1099 108.824 37.697 108.183 37.697 107.392V84.2565C37.697 79.6995 26.9806 78.484 20.6472 78.484ZM33.6516 85.1885C32.3697 83.9158 27.0371 82.9623 20.6472 82.9623C14.2573 82.9623 8.92477 83.9172 7.64285 85.1885C6.9047 84.8592 6.4358 84.5342 6.25849 84.2565C6.95067 83.1656 12.1125 81.3473 20.6472 81.3473C29.1819 81.3473 34.3424 83.1656 35.0346 84.2551C34.8586 84.5328 34.3897 84.8578 33.6516 85.1885ZM65.4486 94.848C65.4486 95.6383 64.8615 96.2796 64.1352 96.2796H40.4289C39.7026 96.2796 39.1155 95.6383 39.1155 94.848C39.1155 94.0577 39.7026 93.4163 40.4289 93.4163H64.1352C64.8602 93.4163 65.4486 94.0577 65.4486 94.848Z" fill="black"/>
</g>
<defs>
<clipPath id="clip0_2348_852">
<rect width="100" height="100" fill="white"/>
</clipPath>
</defs>
</svg>
