<svg width="103" height="109" viewBox="0 0 103 109" fill="none" xmlns="http://www.w3.org/2000/svg">
<g clip-path="url(#clip0_2348_855)">
<path d="M13.0617 36.4571C12.9909 36.3822 12.9072 36.3209 12.8267 36.2562C12.7688 36.1744 12.714 36.0892 12.6368 36.0109L10.1455 33.3711C9.23779 32.4105 7.76361 32.4105 6.85914 33.3711C5.94823 34.335 5.94823 35.8917 6.85914 36.8556L7.7282 37.7753L5.0502 40.6127L4.17792 39.6897C3.27023 38.7291 1.79604 38.7291 0.885139 39.6897C-0.0193301 40.6536 -0.0193301 42.2137 0.885139 43.1742L3.37645 45.8107C3.51164 45.9537 3.6597 46.0661 3.81742 46.1683C3.82708 46.182 3.83673 46.1956 3.84961 46.2092C4.98261 47.4048 6.80764 47.4048 7.94064 46.2092L13.0649 40.7831C14.1947 39.5909 14.1947 37.6493 13.0617 36.4571Z" fill="black" stroke="black"/>
<path d="M48.809 100.672C49.7264 100.174 50.354 99.1797 50.354 98.0114C50.354 96.7068 49.559 95.6032 48.4582 95.191C49.559 94.7823 50.354 93.6821 50.354 92.3741C50.354 91.0592 49.5494 89.9556 48.4357 89.5503C49.5494 89.1449 50.354 88.0413 50.354 86.7231C50.354 85.0676 49.0826 83.7256 47.5183 83.7256H45.7062C44.1419 83.7256 42.8672 85.0745 42.8672 86.7231C42.8672 88.0413 43.6719 89.1449 44.7888 89.5503C43.6719 89.9556 42.8672 91.0592 42.8672 92.3741C42.8672 93.6821 43.6623 94.7823 44.7663 95.191C43.6623 95.6032 42.8672 96.7068 42.8672 98.0114C42.8672 99.0026 43.3339 99.8746 44.0324 100.426C40.4467 101.373 37.7913 104.797 37.7913 108.881C50.1126 108.881 45.8993 108.881 54.2809 108.881C54.2777 105.09 51.9956 101.877 48.809 100.672Z" fill="black" stroke="black"/>
<path d="M69.892 100.546C70.5937 100.001 71.054 99.1286 71.054 98.1305C71.054 96.8259 70.2589 95.7291 69.1549 95.317C70.2622 94.9048 71.054 93.8046 71.054 92.5C71.054 91.1852 70.2493 90.0816 69.1324 89.6728C70.2493 89.2675 71.054 88.1639 71.054 86.849C71.054 85.1902 69.7826 83.8447 68.215 83.8447H66.4061C64.8418 83.8447 63.5704 85.1902 63.5704 86.849C63.5704 88.1639 64.3751 89.2675 65.4888 89.6728C64.3751 90.0816 63.5704 91.1852 63.5704 92.5C63.5704 93.8046 64.3654 94.9048 65.463 95.317C64.3654 95.7291 63.5704 96.8259 63.5704 98.1305C63.5704 99.2955 64.2013 100.294 65.1154 100.794C61.932 102 59.6467 105.216 59.6467 109C68.0284 109 63.815 109 76.1364 109C76.1396 104.912 73.4809 101.489 69.892 100.546Z" fill="black" stroke="black"/>
<path d="M102.388 69.7499L100.396 66.6706C100.293 66.5037 100.164 66.3641 100.029 66.2312C100.023 66.2176 100.01 66.204 100.003 66.1835C99.1245 64.8244 97.3832 64.4566 96.0731 65.3388C95.9959 65.0935 95.8897 64.8517 95.7448 64.6337C95.1397 63.6936 94.1258 63.2439 93.128 63.3325C93.569 62.3788 93.5368 61.2138 92.9316 60.2805C92.2171 59.1837 90.9585 58.7443 89.8062 59.0713C90.3373 58.0937 90.3405 56.8436 89.7 55.8456C89.0852 54.8952 88.0456 54.4422 87.0349 54.5546C87.3664 53.6451 87.2892 52.5892 86.7259 51.724C86.1208 50.7873 85.1069 50.3343 84.1123 50.4262C84.5532 49.4725 84.521 48.3075 83.9127 47.3742C83.0211 45.9879 81.2283 45.6336 79.9215 46.584L78.399 47.6842C77.0954 48.6345 76.7542 50.525 77.6554 51.9114C78.2606 52.8481 79.2809 53.3011 80.2723 53.2125C79.8345 54.1663 79.8635 55.3312 80.4719 56.2645C81.0834 57.2183 82.1231 57.6679 83.137 57.5623C82.8022 58.4684 82.8827 59.5243 83.4428 60.3895C84.1509 61.4829 85.4159 61.9189 86.5649 61.5953C86.0306 62.5763 86.0306 63.8298 86.6744 64.8244C87.2827 65.7578 88.2966 66.2108 89.2945 66.1222C88.8503 67.0692 88.8825 68.2375 89.494 69.1742C89.6356 69.3922 89.8095 69.5796 89.9897 69.7465C88.6925 70.707 88.361 72.5941 89.2558 73.9838C89.317 74.0724 89.3846 74.1439 89.4554 74.2257C89.5005 74.3211 89.5359 74.4164 89.6002 74.5084L91.5926 77.5808C92.3169 78.7049 93.7653 78.991 94.8243 78.2212C95.8832 77.4446 96.1568 75.9186 95.4294 74.7945L94.7341 73.7216L97.8628 71.4598L98.5612 72.5328C99.2887 73.6534 100.734 73.9396 101.793 73.1732C102.849 72.3999 103.119 70.8671 102.388 69.7499Z" fill="black" stroke="black"/>
<path d="M34.669 47.0572C33.5457 45.8685 31.7271 45.8685 30.6038 47.0572C29.7186 47.9974 29.5416 49.3939 30.0566 50.5282C29.0491 50.1535 27.8871 50.3851 27.0792 51.2367C26.3968 51.9588 26.1329 52.9535 26.281 53.8902C26.0911 53.8629 25.9076 53.8289 25.7113 53.8289C25.4924 53.8289 25.2735 53.8629 25.0611 53.9004C25.119 53.0488 24.8551 52.1802 24.2403 51.5296C23.3551 50.5895 22.029 50.4056 20.9572 50.954C21.3112 49.8844 21.0923 48.6548 20.2877 47.7998C19.4443 46.9074 18.2083 46.686 17.1719 47.1356C17.6386 46.0183 17.4455 44.6729 16.5764 43.7566C15.4563 42.5678 13.6345 42.5678 12.5112 43.7566L11.2204 45.1327C10.0971 46.3215 10.0971 48.246 11.2204 49.4348C12.067 50.3272 13.2997 50.5486 14.3394 50.1024C13.8727 51.2163 14.069 52.5651 14.9284 53.478C15.8168 54.4147 17.1397 54.6021 18.2116 54.0571C17.8607 55.1232 18.0764 56.3563 18.8811 57.2079C19.6471 58.0185 20.7351 58.2672 21.7103 57.9675C21.7103 58.0117 21.7007 58.0458 21.7007 58.0935C21.7007 60.4404 23.5 62.3513 25.7241 62.3513C27.9451 62.3513 29.7476 60.4438 29.7476 58.0935C29.7476 57.9606 29.7186 57.8346 29.7089 57.7018C30.6585 57.9606 31.7078 57.7086 32.4545 56.9217C33.3397 55.9816 33.5167 54.5816 32.9985 53.4508C34.006 53.822 35.1679 53.5938 35.9758 52.7423C37.0992 51.5535 37.0992 49.629 35.9758 48.4402L34.669 47.0572ZM25.7209 59.6706C24.8905 59.6706 24.2242 58.9655 24.2242 58.0935C24.2242 57.2181 24.8937 56.5062 25.7209 56.5062C26.5449 56.5062 27.2176 57.2147 27.2176 58.0935C27.2176 58.9655 26.5481 59.6706 25.7209 59.6706Z" fill="black" stroke="black"/>
<path d="M45.4552 23.0705V20.7168C45.4552 19.5757 44.5829 18.6492 43.5014 18.6492H41.274C40.1958 18.6492 39.3235 19.5723 39.3235 20.7168V23.0705C39.3235 24.2116 40.1958 25.1415 41.274 25.1415H43.4982C44.5765 25.1415 45.4552 24.2116 45.4552 23.0705Z" fill="black" stroke="black"/>
<path d="M69.3254 20.7236V23.0773C69.3254 24.2184 70.1977 25.1483 71.276 25.1483H73.5002C74.5784 25.1483 75.4507 24.2218 75.4507 23.0773V20.7236C75.4507 19.5825 74.5784 18.656 73.5002 18.656H71.276C70.1977 18.656 69.3254 19.5825 69.3254 20.7236Z" fill="black" stroke="black"/>
<path d="M57.0072 55.5695C54.2197 55.4741 51.8797 57.7802 51.7831 60.7368C51.6866 63.6866 53.8657 66.1629 56.6627 66.2651C59.4534 66.3605 61.7902 64.0545 61.8836 61.0979C61.9833 58.1514 59.8042 55.6785 57.0072 55.5695ZM56.7722 62.9474C55.7132 62.9066 54.886 61.963 54.9214 60.8492C54.96 59.7285 55.8452 58.8497 56.9042 58.8906C57.9631 58.9281 58.7903 59.8682 58.7549 60.9889C58.7195 62.1095 57.8312 62.9883 56.7722 62.9474Z" fill="black" stroke="black"/>
<path d="M72.1516 41.8696H65.3182C65.5371 41.2122 65.6658 40.5071 65.6658 39.768C65.6658 38.9879 65.5242 38.2386 65.2764 37.5505H70.1592C72.364 37.5505 74.1505 35.66 74.1505 33.3268V29.3721H74.6622C77.3048 29.3721 79.4517 27.1001 79.4517 24.3036V19.5008C79.4517 16.7077 77.3048 14.4323 74.6622 14.4323H73.8447C73.2524 12.8858 71.8265 11.7958 70.156 11.7958H63.1423L65.3794 5.123C65.4469 5.12981 65.5145 5.14344 65.5821 5.14344C66.9244 5.14344 68.0091 3.99213 68.0091 2.57512C68.0091 1.15472 66.9211 0.0068125 65.5821 0.0068125C64.2431 0.0068125 63.1584 1.15472 63.1584 2.57512C63.1584 3.47097 63.5929 4.25781 64.2496 4.71425L61.8709 11.7958H57.3904V11.7856H52.9035L50.5313 4.70744C51.1847 4.24759 51.6224 3.46075 51.6224 2.56831C51.6224 1.14791 50.5345 0 49.1955 0C47.8565 0 46.7653 1.14791 46.7653 2.56831C46.7653 3.98531 47.8533 5.13663 49.1955 5.13663C49.2631 5.13663 49.3307 5.123 49.395 5.11278L51.6353 11.7856H44.6152C42.9414 11.7856 41.5188 12.8756 40.9265 14.4221H40.1154C37.476 14.4221 35.3291 16.694 35.3291 19.4872V24.29C35.3291 27.0831 37.476 29.3551 40.1154 29.3551H40.6304V33.3131C40.6304 35.6464 42.4168 37.5369 44.6152 37.5369H49.498C49.2502 38.2249 49.1086 38.9675 49.1086 39.7509C49.1086 40.4935 49.2373 41.202 49.4594 41.8628H41.5252C39.3204 41.8628 37.5372 43.7533 37.5372 46.0866V77.4309C37.5372 79.7676 39.3236 81.6546 41.5252 81.6546H72.1484C74.3532 81.6546 76.1364 79.7642 76.1364 77.4309V46.0866C76.1396 43.7567 74.3532 41.8696 72.1516 41.8696ZM77.852 19.5008V24.3036C77.852 26.1668 76.4229 27.6826 74.659 27.6826H70.1238C68.3599 27.6826 66.9308 26.1668 66.9308 24.3036V19.5008C66.9308 17.6376 68.3599 16.1218 70.1238 16.1218H74.659C76.4229 16.1218 77.852 17.6376 77.852 19.5008ZM36.9224 24.2934V19.4906C36.9224 17.6273 38.3547 16.115 40.1154 16.115H44.6538C46.4113 16.115 47.8404 17.6273 47.8404 19.4906V24.2934C47.8404 26.1532 46.4145 27.669 44.6538 27.669H40.1154C38.3579 27.6724 36.9224 26.1566 36.9224 24.2934ZM53.0515 28.357H57.3904V28.3638H61.7261C63.3902 28.3638 64.7388 29.4709 64.7388 30.8402C64.7388 32.2061 63.3934 33.3165 61.7261 33.3165H57.3904V33.3131H53.0515C51.3874 33.3131 50.0388 32.2027 50.0388 30.8334C50.0388 29.4675 51.3874 28.357 53.0515 28.357ZM67.6421 62.4536C67.6325 62.7329 67.4104 62.9509 67.1464 62.9441L65.7978 62.8964C65.5274 64.2453 64.9834 65.5294 64.2045 66.6501L65.1219 67.6924C65.3053 67.8968 65.2924 68.2136 65.0993 68.4077L63.4352 70.0495C63.3451 70.1415 63.2196 70.196 63.0908 70.1892C62.9621 70.1824 62.843 70.1245 62.7561 70.0291L61.8645 69.014C60.7476 69.8009 59.4762 70.3288 58.1468 70.54L58.1018 71.9468C58.0921 72.2295 57.87 72.4441 57.6061 72.4373L55.3304 72.3624C55.0665 72.3487 54.8605 72.1137 54.8637 71.8378L54.9088 70.4719C53.5859 70.1926 52.3338 69.5999 51.2394 68.7415L50.3446 69.6272C50.1482 69.8213 49.8457 69.8111 49.6654 69.6067L48.1108 67.8389C47.9402 67.6413 47.9498 67.3075 48.1397 67.1236L49.012 66.2584C48.2588 65.0492 47.7631 63.6764 47.57 62.239L46.4274 62.1981C46.1634 62.1879 45.9574 61.9597 45.9606 61.6736L46.0347 59.2653C46.0443 58.986 46.2664 58.768 46.5304 58.7748L47.6762 58.8191C47.9627 57.3953 48.5485 56.0532 49.3918 54.8951L48.5968 53.9925C48.5163 53.8971 48.4648 53.7677 48.468 53.6314C48.4713 53.4952 48.5292 53.3691 48.6193 53.2772L50.2866 51.6285C50.483 51.4378 50.7791 51.4514 50.9626 51.6524L51.7801 52.5823C52.9196 51.8159 54.2006 51.322 55.53 51.138L55.5718 49.9016C55.5815 49.6222 55.8004 49.4042 56.0643 49.4111L58.3432 49.4928C58.6071 49.503 58.8131 49.7381 58.8034 50.0174L58.7648 51.2947C60.0652 51.6013 61.2915 52.2076 62.3505 53.066L63.2872 52.1429C63.3741 52.0509 63.4996 51.9998 63.6284 52.0066C63.7571 52.01 63.8762 52.0679 63.9631 52.1667L65.5145 53.9312C65.698 54.1355 65.6884 54.4557 65.492 54.6465L64.536 55.5866C65.2474 56.772 65.7141 58.1004 65.9008 59.4765L67.2462 59.5276C67.5102 59.5344 67.7194 59.7695 67.713 60.0488L67.6421 62.4536Z" fill="black" stroke="black"/>
</g>
<defs>
<clipPath id="clip0_2348_855">
<rect width="103" height="109" fill="white"/>
</clipPath>
</defs>
</svg>
