<svg viewBox="0 0 112 67" fill="none" xmlns="http://www.w3.org/2000/svg">
<g clip-path="url(#clip0_2348_879)">
<path d="M45.1675 34.5654H11.7355V0.881592H24.6247V11.6373H32.2787V0.881592H45.1679L45.1675 34.5654ZM38.3473 55.7934C38.3473 61.4245 33.8244 65.9813 28.2354 65.9813C22.6463 65.9813 18.1234 61.4245 18.1234 55.7934C18.1234 50.1623 22.6463 45.6054 28.2354 45.6054C33.8249 45.6054 38.3473 50.1623 38.3473 55.7934ZM32.1086 55.7934C32.1086 53.6542 30.3586 51.8911 28.2354 51.8911C26.1122 51.8911 24.3622 53.6542 24.3622 55.7934C24.3622 57.9325 26.1122 59.6957 28.2354 59.6957C30.3586 59.6957 32.1086 57.9325 32.1086 55.7934ZM102.006 55.8004C102.006 61.4315 97.4829 65.9884 91.8938 65.9884C86.3047 65.9884 81.7819 61.4315 81.7819 55.8004C81.7819 50.1694 86.3047 45.6125 91.8938 45.6125C97.4829 45.6125 102.006 50.1694 102.006 55.8004ZM95.767 55.8004C95.767 53.6613 94.017 51.8981 91.8938 51.8981C89.7706 51.8981 88.0206 53.6613 88.0206 55.8004C88.0206 57.9396 89.7706 59.7027 91.8938 59.7027C94.017 59.7027 95.767 57.9396 95.767 55.8004ZM0.875 37.8193H57.3125V53.6877H43.7168H42.3189C41.9147 53.5811 41.5835 53.3219 41.51 52.9141C40.4071 46.5421 34.8911 42.1227 28.2358 42.1227C21.5806 42.1227 16.0646 46.5421 14.9616 52.9141C14.8881 53.2844 14.5574 53.5806 14.1531 53.6877H4.375C2.41456 53.5811 0.875 51.9801 0.875 50.0045V37.8193ZM111.125 47.0609V49.8022C111.125 51.877 109.284 53.6877 107.188 53.6877H105.875C105.471 53.6877 105.242 53.3219 105.168 52.9141C104.065 46.5421 98.5491 41.689 91.8938 41.689C85.2386 41.689 79.7226 46.5421 78.6196 52.9141C78.5461 53.2844 78.2797 53.6877 77.875 53.6877H60.375V13.1351H72.1875C73.2537 13.1721 74.1484 13.8025 74.8838 14.5434L91.2472 30.5908C91.3942 30.7389 91.6545 30.7671 91.875 30.7671H102.375C105.647 30.7671 108.062 33.6781 108.062 36.9382V46.1948H110.25C110.691 46.1943 111.125 46.6536 111.125 47.0609ZM84.0031 29.4421L72.163 18.0257C71.9792 17.8776 71.5334 17.543 71.3125 17.543H65.625C65.1836 17.543 64.75 17.9798 64.75 18.4246V29.8851C64.75 30.3299 65.1836 30.7667 65.625 30.7667H83.5625C84.2612 30.7667 84.4445 29.9979 84.0031 29.4421Z" fill="black" stroke="black"/>
</g>
<defs>
<clipPath id="clip0_2348_879">
<rect width="112" height="67" fill="white"/>
</clipPath>
</defs>
</svg>
