<svg width="109" height="109" viewBox="0 0 109 109" fill="none" xmlns="http://www.w3.org/2000/svg">
<g clip-path="url(#clip0_2348_784)">
<path d="M17.4221 24.1597C24.9649 24.1597 26.4751 18.2986 26.4751 15.102V12.01C26.4751 8.81325 24.9649 2.95386 17.4221 2.95386C9.88113 2.95386 8.37109 8.81325 8.37109 12.01V15.1018C8.37109 18.2986 9.88113 24.1597 17.4221 24.1597Z" fill="black" stroke="black" stroke-width="0.390625"/>
<path d="M52.7969 39.1719L40.1482 45.3706L33.2109 34.0625C31.177 30.7461 28.5474 28.1582 24.815 28.1582H19.1252H11.0256C4.93651 28.1582 0 33.3889 0 39.8406V73.4341H7.45458V109H14.6677L19.1252 76.5974L23.5844 109H30.7976V57.6135V49.1511L36.9016 56.2031L56.2031 44.2813L52.7969 39.1719Z" fill="black" stroke="black" stroke-width="0.390625"/>
<path d="M109 10.2188V5.10938H105.594H76.6406V0H69.8281V5.10938H40.875H37.4688V10.2188H40.875V40.04L41.4323 40.9482L44.2812 39.5527V10.2188H102.188V61.3125H44.2812V55.6492L40.875 57.7532V61.3125H37.4688V66.4219H40.875H71.5845V79.8506L59.9087 102.142C58.2105 102.314 56.8818 103.731 56.8818 105.474C56.8818 107.333 58.3887 108.84 60.248 108.84C62.1074 108.84 63.6145 107.333 63.6145 105.474C63.6145 104.76 63.3901 104.102 63.0107 103.558L71.5847 87.1902V103.891H74.9909V87.5979L83.3984 103.648C83.0574 104.175 82.8547 104.8 82.8547 105.474C82.8547 107.333 84.3615 108.84 86.2209 108.84C88.0803 108.84 89.5874 107.333 89.5874 105.474C89.5874 103.693 88.2002 102.249 86.4489 102.131L74.9911 80.2581V66.4219H105.594H109V61.3125H105.594V10.2188H109Z" fill="black" stroke="black" stroke-width="0.390625"/>
<path d="M78.4487 17.5884V31.4048L91.4649 26.8093C89.5703 21.4436 84.4661 17.5884 78.4487 17.5884Z" fill="black" stroke="black" stroke-width="0.390625"/>
<path d="M59.3218 39.5513C59.3218 47.1819 65.5056 53.3657 73.1363 53.3657C80.7654 53.3657 86.9507 47.1819 86.9507 39.5513C86.9507 37.938 86.6597 36.396 86.1541 34.9592L73.136 39.5513V25.7383C65.5056 25.7381 59.3218 31.9236 59.3218 39.5513Z" fill="black" stroke="black" stroke-width="0.390625"/>
</g>
<defs>
<clipPath id="clip0_2348_784">
<rect width="109" height="109" fill="white"/>
</clipPath>
</defs>
</svg>
