<svg  viewBox="0 0 132 37" fill="none" xmlns="http://www.w3.org/2000/svg">
<path d="M47.8679 15.1213C40.5827 8.91781 26.7962 5.40963 16.6934 7.01014C4.96123 8.86877 -4.8752 23.1606 5.14726 31.2208C11.6587 36.4574 33.0264 37.2463 41.0846 34.2932C51.8389 30.352 49.0007 11.8288 41.734 6.39566C27.2606 -4.42579 5.56926 1.78167 2.33289 18.3166C-0.486308 32.7202 19.2524 39.1954 29.9714 28.2713C34.7539 23.3972 41.8293 13.1085 38.3424 6.39566C35.458 0.842797 24.4544 1.3816 19.6521 4.18351C9.90471 9.87059 11.4493 25.8693 24.487 26.182C34.4034 26.4199 40.6198 24.5285 42.3835 15.3671C42.7979 13.2147 43.3222 5.74223 38.8475 10.2669C37.2111 11.9216 35.8946 19.4771 38.4867 16.3503C42.275 11.7804 38.2226 6.90776 47.2906 7.44028C58.6204 8.10562 70.0556 17.8799 78.1765 23.9084C79.9895 25.2543 85.6908 32.2527 88.7123 31.4666C97.4935 29.1818 102.296 20.1587 110.217 16.4117C123.26 10.2414 123.287 17.402 131 23.9699" stroke="#000AFF" stroke-width="2" stroke-linecap="round"/>
</svg>
