<svg width="45" height="45" viewBox="0 0 45 45" fill="none" xmlns="http://www.w3.org/2000/svg">
<path d="M22.5 0C10.08 0 0 10.08 0 22.5C0 34.92 10.08 45 22.5 45C34.92 45 45 34.92 45 22.5C45 10.08 34.92 0 22.5 0ZM32.94 15.3C32.6025 18.855 31.14 27.495 30.3975 31.4775C30.0825 33.165 29.4525 33.7275 28.8675 33.795C27.5625 33.9075 26.5725 32.94 25.3125 32.1075C23.3325 30.8025 22.2075 29.9925 20.295 28.7325C18.0675 27.27 19.5075 26.46 20.79 25.155C21.1275 24.8175 26.8875 19.575 27 19.1025C27.0156 19.0309 27.0135 18.9566 26.9939 18.8861C26.9743 18.8155 26.9378 18.7508 26.8875 18.6975C26.7525 18.585 26.5725 18.63 26.415 18.6525C26.2125 18.6975 23.0625 20.79 16.92 24.93C16.02 25.5375 15.21 25.8525 14.49 25.83C13.68 25.8075 12.15 25.38 11.0025 24.9975C9.585 24.5475 8.4825 24.3 8.5725 23.5125C8.6175 23.1075 9.18 22.7025 10.2375 22.275C16.8075 19.4175 21.1725 17.5275 23.355 16.6275C29.61 14.0175 30.8925 13.5675 31.7475 13.5675C31.9275 13.5675 32.355 13.6125 32.625 13.8375C32.85 14.0175 32.9175 14.265 32.94 14.445C32.9175 14.58 32.9625 14.985 32.94 15.3Z" fill="white"/>
</svg>
