<svg width="32" height="36" viewBox="0 0 32 36" fill="none" xmlns="http://www.w3.org/2000/svg">
<path d="M25.3878 5.64C23.9927 4.07924 23.2239 2.07486 23.2245 0H16.9184V24.8C16.8697 26.142 16.2916 27.4132 15.3056 28.3459C14.3197 29.2785 13.003 29.7998 11.6327 29.8C8.73469 29.8 6.32653 27.48 6.32653 24.6C6.32653 21.16 9.71429 18.58 13.2041 19.64V13.32C6.16327 12.4 0 17.76 0 24.6C0 31.26 5.63265 36 11.6122 36C18.0204 36 23.2245 30.9 23.2245 24.6V12.02C25.7816 13.8197 28.8518 14.7853 32 14.78V8.6C32 8.6 28.1633 8.78 25.3878 5.64Z" fill="white"/>
</svg>
