<svg width="45" height="45" viewBox="0 0 45 45" fill="none" xmlns="http://www.w3.org/2000/svg">
<path d="M38.4422 6.54761C36.369 4.46395 33.8997 2.81188 31.1781 1.68774C28.4565 0.56361 25.5372 -0.0100802 22.5904 0.000134031C10.2437 0.000134031 0.180905 10.0126 0.180905 22.2976C0.180905 26.2351 1.22111 30.06 3.16583 33.435L0 45L11.8719 41.895C15.1508 43.6725 18.8367 44.6175 22.5904 44.6175C34.9372 44.6175 45 34.605 45 22.3201C45 16.3576 42.6708 10.7551 38.4422 6.54761ZM22.5904 40.8375C19.2437 40.8375 15.9648 39.9375 13.093 38.25L12.4146 37.845L5.3593 39.69L7.23618 32.85L6.78392 32.1525C4.92455 29.1982 3.93725 25.7834 3.93467 22.2976C3.93467 12.0826 12.3015 3.75762 22.5678 3.75762C27.5427 3.75762 32.2236 5.69262 35.7286 9.20261C37.4642 10.9215 38.8395 12.9661 39.775 15.2178C40.7105 17.4695 41.1875 19.8836 41.1784 22.3201C41.2236 32.535 32.8568 40.8375 22.5904 40.8375ZM32.8116 26.9776C32.2462 26.7076 29.4874 25.3576 28.9899 25.1551C28.4698 24.9751 28.108 24.8851 27.7236 25.4251C27.3392 25.9876 26.2764 27.2476 25.9598 27.6076C25.6432 27.9901 25.304 28.035 24.7387 27.7425C24.1734 27.4726 22.3643 26.8651 20.2387 24.9751C18.5653 23.4901 17.4573 21.6676 17.1181 21.1051C16.8015 20.5426 17.0729 20.2501 17.3668 19.9576C17.6156 19.7101 17.9322 19.3051 18.2035 18.9901C18.4749 18.6751 18.5879 18.4276 18.7688 18.0676C18.9497 17.6851 18.8593 17.3701 18.7236 17.1001C18.5879 16.8301 17.4573 14.0851 17.005 12.9601C16.5528 11.8801 16.0779 12.0151 15.7387 11.9926H14.6533C14.2688 11.9926 13.6809 12.1276 13.1608 12.6901C12.6633 13.2526 11.2161 14.6026 11.2161 17.3476C11.2161 20.0926 13.2286 22.7476 13.5 23.1076C13.7714 23.4901 17.4573 29.115 23.0653 31.5225C24.3995 32.1075 25.4397 32.445 26.2538 32.6925C27.5879 33.12 28.809 33.0525 29.7814 32.9175C30.8668 32.76 33.1055 31.5675 33.5578 30.2625C34.0327 28.9575 34.0327 27.8551 33.8744 27.6076C33.7161 27.3601 33.3769 27.2476 32.8116 26.9776Z" fill="white"/>
</svg>
