<svg  viewBox="0 0 79 79" fill="none" xmlns="http://www.w3.org/2000/svg">
<g clip-path="url(#clip0_2348_868)">
<path d="M39.5 0C17.6891 0 0 17.6891 0 39.5C0 61.3109 17.6891 79 39.5 79C61.3109 79 79 61.3109 79 39.5C79 17.6891 61.3109 0 39.5 0ZM42.6772 71.9587C42.5054 71.9587 42.3337 71.9587 42.0761 72.0446V53.4109C46.5413 53.325 50.5772 53.2391 54.2696 52.9815C51.0065 63.0283 44.9098 69.7261 42.6772 71.9587ZM36.3228 71.9587C34.0043 69.6402 27.9935 62.9424 24.7304 52.9815C28.337 53.2391 32.4587 53.4109 36.9239 53.4109V72.0446C36.7522 72.0446 36.5804 71.9587 36.3228 71.9587ZM6.86957 39.5C6.86957 37.3533 7.12717 35.2065 7.47065 33.1456C9.35978 32.8022 12.9663 32.287 18.0326 31.7717C17.6033 34.262 17.3457 36.838 17.3457 39.5859C17.3457 42.3337 17.6033 44.9098 17.9467 47.3141C12.9663 46.7989 9.27391 46.2837 7.38478 45.9402C7.12717 43.7935 6.86957 41.6467 6.86957 39.5ZM22.5837 39.5C22.5837 36.5804 22.9272 33.8326 23.4424 31.2565C27.3924 30.9989 31.8576 30.7413 36.9239 30.7413V48.2587C31.9435 48.1728 27.3924 48.0011 23.3565 47.6576C22.9272 45.1674 22.5837 42.4196 22.5837 39.5ZM42.5913 7.0413C44.9098 9.35978 50.8348 16.2293 54.1837 26.0185C50.5772 25.7609 46.5413 25.5891 42.0761 25.5891V6.95543C42.2478 6.95543 42.4196 7.0413 42.5913 7.0413ZM36.9239 6.95543V25.5891C32.4587 25.675 28.4228 25.7609 24.8163 26.0185C28.0793 16.2293 34.0902 9.35978 36.3228 7.0413C36.5804 7.0413 36.7522 6.95543 36.9239 6.95543ZM42.0761 48.2587V30.7413C47.0565 30.8272 51.6076 30.9989 55.5576 31.2565C56.0728 33.8326 56.4163 36.5804 56.4163 39.5C56.4163 42.4196 56.1587 45.1674 55.6435 47.7435C51.6935 48.0011 47.1424 48.1728 42.0761 48.2587ZM60.8815 31.7717C65.9478 32.287 69.5543 32.8022 71.4435 33.1456C71.8728 35.2065 72.1304 37.3533 72.1304 39.5C72.1304 41.6467 71.8728 43.7935 71.5294 45.8543C69.6402 46.1978 66.0337 46.713 60.9674 47.2283C61.3967 44.738 61.5685 42.162 61.5685 39.4141C61.5685 36.838 61.3109 34.1761 60.8815 31.7717ZM69.8978 27.65C67.4935 27.3065 64.0587 26.8772 59.6793 26.4478C57.6185 19.063 54.012 13.138 51.0065 8.93043C59.6793 12.1935 66.5489 19.063 69.8978 27.65ZM27.9935 8.93043C24.9022 13.0522 21.3815 18.9772 19.3207 26.362C15.0272 26.7054 11.5924 27.2206 9.10217 27.5641C12.4511 19.063 19.4065 12.1935 27.9935 8.93043ZM9.10217 51.35C11.5065 51.6935 14.9413 52.1228 19.2348 52.5522C21.2957 59.937 24.7304 65.862 27.8217 69.9837C19.2348 66.6348 12.4511 59.8511 9.10217 51.35ZM51.1783 69.9837C54.2696 65.862 57.7043 60.0228 59.7652 52.638C64.0587 52.2946 67.4935 51.7793 69.8978 51.4359C66.5489 59.8511 59.7652 66.6348 51.1783 69.9837Z" fill="black" stroke="black"/>
</g>
<defs>
<clipPath id="clip0_2348_868">
<rect width="79" height="79" fill="white"/>
</clipPath>
</defs>
</svg>
